<?xml version="1.0" encoding="utf-8"?><svg xmlns="http://www.w3.org/2000/svg" xmlns:xlink="http://www.w3.org/1999/xlink" width="1893" height="1138" preserveAspectRatio="xMidYMid" viewBox="0 0 1893 1138" style="z-index:1;margin-right:-2px;display:block;background-color:rgb(255, 255, 255);animation-play-state:paused" ><g transform="translate(946.5,569) scale(1,1) translate(-946.5,-569)" style="transform:matrix(1, 0, 0, 1, 0, 0);animation-play-state:paused" ><path id="path0" d="M 896.126449547081 1085.8805877557588
c 0 34.49534533201126 -8.440350453577222 9.908237488981959 -18.34858794255918 9.908237488981959
S 859.4292736619626 1120.3759330877701 859.4292736619626 1085.8805877557588
s 8.440350453577222 -9.908237488981959 18.34858794255918 -9.908237488981959
S 896.126449547081 1051.3852424237475 896.126449547081 1085.8805877557588
z" fill="none" stroke="none" style="animation-play-state:paused" ></path>


<circle cx="0" cy="0" r="5.295965357669796" fill="#ff708e" opacity="0.9" transform="translate(886.1080322265625 1100.166259765625)" style="opacity:0.9;animation-play-state:paused" ></circle>
<path id="path1" d="M 231.62310072168674 770.360623778298
c 0 21.60050968951201 -5.285231094242299 6.204401719327917 -11.489632813570216 6.204401719327917
S 208.64383509454632 791.96113346781 208.64383509454632 770.360623778298
s 5.285231094242299 -6.204401719327917 11.489632813570216 -6.204401719327917
S 231.62310072168674 748.7601140887859 231.62310072168674 770.360623778298
z" fill="none" stroke="none" style="animation-play-state:paused" ></path>


<circle cx="0" cy="0" r="4.978963481244453" fill="#51cacc" opacity="0.9" transform="translate(210.61875915527344 758.9144287109375)" style="opacity:0.9;animation-play-state:paused" ></circle>
<path id="path2" d="M 1561.7002526868462 243.08846210107697
c 0 19.203705279939342 -4.6987789514745195 5.515957899557045 -10.214736851031565 5.515957899557045
S 1541.270778984783 262.2921673810163 1541.270778984783 243.08846210107697
s 4.6987789514745195 -5.515957899557045 10.214736851031565 -5.515957899557045
S 1561.7002526868462 223.88475682113761 1561.7002526868462 243.08846210107697
z" fill="none" stroke="none" style="animation-play-state:paused" ></path>


<circle cx="0" cy="0" r="7.6905359623643585" fill="#e0ff77" opacity="0.9" transform="translate(1552.6114501953125 237.39309692382812)" style="opacity:0.9;animation-play-state:paused" ></circle>
<path id="path3" d="M 981.5646110441463 32.669287064958176
c 0 27.01259690888582 -6.609465201110359 7.758937409999118 -14.368402611109477 7.758937409999118
S 952.8278058219274 59.681883973843995 952.8278058219274 32.669287064958176
s 6.609465201110359 -7.758937409999118 14.368402611109477 -7.758937409999118
S 981.5646110441463 5.656690156072358 981.5646110441463 32.669287064958176
z" fill="none" stroke="none" style="animation-play-state:paused" ></path>


<circle cx="0" cy="0" r="7.653093087981192" fill="#e0ff77" opacity="0.9" transform="translate(960.14892578125 44.30987548828125)" style="opacity:0.9;animation-play-state:paused" ></circle>
<path id="path4" d="M 1450.5978596971556 671.8528624342736
c 0 20.98057043423938 -5.133543829654315 6.026334060898545 -11.15987789055286 6.026334060898545
S 1428.2781039160498 692.8334328685129 1428.2781039160498 671.8528624342736
s 5.133543829654315 -6.026334060898545 11.15987789055286 -6.026334060898545
S 1450.5978596971556 650.8722920000342 1450.5978596971556 671.8528624342736
z" fill="none" stroke="none" style="animation-play-state:paused" ></path>


<circle cx="0" cy="0" r="5.862359316139708" fill="#ff708e" opacity="0.9" transform="translate(1450.464599609375 666.8361206054688)" style="opacity:0.9;animation-play-state:paused" ></circle>
<path id="path5" d="M 275.7914097325331 1003.469096403165
c 0 35.43951239498194 -8.671370054091325 10.1794344113246 -18.850804465415926 10.1794344113246
S 238.08980080170124 1038.908608798147 238.08980080170124 1003.469096403165
s 8.671370054091325 -10.1794344113246 18.850804465415926 -10.1794344113246
S 275.7914097325331 968.0295840081831 275.7914097325331 1003.469096403165
z" fill="none" stroke="none" style="animation-play-state:paused" ></path>


<circle cx="0" cy="0" r="5.5455410685922555" fill="#51cacc" opacity="0.9" transform="translate(275.4723205566406 1013.2423706054688)" style="opacity:0.9;animation-play-state:paused" ></circle>
<path id="path6" d="M 213.7845464393161 988.2002600479786
c 0 32.063840704678654 -7.845407831995841 9.209826585386423 -17.055234417382263 9.209826585386423
S 179.6740776045516 1020.2641007526573 179.6740776045516 988.2002600479786
s 7.845407831995841 -9.209826585386423 17.055234417382263 -9.209826585386423
S 213.7845464393161 956.1364193433 213.7845464393161 988.2002600479786
z" fill="none" stroke="none" style="animation-play-state:paused" ></path>


<circle cx="0" cy="0" r="5.008053649432327" fill="#e0ff77" opacity="0.9" transform="translate(186.27340698242188 1003.7847900390625)" style="opacity:0.9;animation-play-state:paused" ></circle>
<path id="path7" d="M 1260.121187572327 190.22552780141402
c 0 25.80623544801901 -6.314291652174863 7.41242933081397 -13.726720982988834 7.41242933081397
S 1232.6677456063494 216.03176324943303 1232.6677456063494 190.22552780141402
s 6.314291652174863 -7.41242933081397 13.726720982988834 -7.41242933081397
S 1260.121187572327 164.419292353395 1260.121187572327 190.22552780141402
z" fill="none" stroke="none" style="animation-play-state:paused" ></path>


<circle cx="0" cy="0" r="7.18935206016114" fill="#e0ff77" opacity="0.9" transform="translate(1260.071533203125 193.85914611816406)" style="opacity:0.9;animation-play-state:paused" ></circle>
<path id="path8" d="M 1341.4874337780434 285.92009277680137
c 0 36.27320816866526 -8.875359445524477 10.418900218659171 -19.29425966418365 10.418900218659171
S 1302.8989144496759 322.1933009454666 1302.8989144496759 285.92009277680137
s 8.875359445524477 -10.418900218659171 19.29425966418365 -10.418900218659171
S 1341.4874337780434 249.6468846081361 1341.4874337780434 285.92009277680137
z" fill="none" stroke="none" style="animation-play-state:paused" ></path>


<circle cx="0" cy="0" r="6.41528068452917" fill="#ff708e" opacity="0.9" transform="translate(1341.3177490234375 293.5274658203125)" style="opacity:0.9;animation-play-state:paused" ></circle>
<path id="path9" d="M 284.68693651115177 266.6176397774127
c 0 31.32887179844297 -7.665575014512641 8.99871849529745 -16.66429350981009 8.99871849529745
S 251.3583494915316 297.94651157585565 251.3583494915316 266.6176397774127
s 7.665575014512641 -8.99871849529745 16.66429350981009 -8.99871849529745
S 284.68693651115177 235.28876797896973 284.68693651115177 266.6176397774127
z" fill="none" stroke="none" style="animation-play-state:paused" ></path>


<circle cx="0" cy="0" r="4.993770204458484" fill="#51cacc" opacity="0.9" transform="translate(284.3169860839844 276.23431396484375)" style="opacity:0.9;animation-play-state:paused" ></circle>
<path id="path10" d="M 545.054777312778 216.0323994503833
c 0 25.411648902816033 -6.217743880476263 7.299090642298223 -13.516834522774486 7.299090642298223
S 518.021108267229 241.44404835319935 518.021108267229 216.0323994503833
s 6.217743880476263 -7.299090642298223 13.516834522774486 -7.299090642298223
S 545.054777312778 190.62075054756727 545.054777312778 216.0323994503833
z" fill="none" stroke="none" style="animation-play-state:paused" ></path>


<circle cx="0" cy="0" r="5.598091069394203" fill="#ff708e" opacity="0.9" transform="translate(532.5592041015625 223.44509887695312)" style="opacity:0.9;animation-play-state:paused" ></circle>
<path id="path11" d="M 1188.4756767872723 1067.6870613517585
c 0 27.40002637179946 -6.704261771823271 7.870220340836015 -14.574482112659286 7.870220340836015
S 1159.3267125619536 1095.087087723558 1159.3267125619536 1067.6870613517585
s 6.704261771823271 -7.870220340836015 14.574482112659286 -7.870220340836015
S 1188.4756767872723 1040.2870349799591 1188.4756767872723 1067.6870613517585
z" fill="none" stroke="none" style="animation-play-state:paused" ></path>


<circle cx="0" cy="0" r="7.856402554238431" fill="#51cacc" opacity="0.9" transform="translate(1188.0662841796875 1058.5018310546875)" style="opacity:0.9;animation-play-state:paused" ></circle>
<path id="path12" d="M 84.20419135965501 879.3332516955206
c 0 29.288557265223034 -7.166349118086486 8.412670703840659 -15.579019821927144 8.412670703840659
S 53.04615171580072 908.6218089607437 53.04615171580072 879.3332516955206
s 7.166349118086486 -8.412670703840659 15.579019821927144 -8.412670703840659
S 84.20419135965501 850.0446944302976 84.20419135965501 879.3332516955206
z" fill="none" stroke="none" style="animation-play-state:paused" ></path>


<circle cx="0" cy="0" r="7.403221390472117" fill="#de9dd6" opacity="0.9" transform="translate(83.5584487915039 890.593017578125)" style="opacity:0.9;animation-play-state:paused" ></circle>
<path id="path13" d="M 514.9017481464219 594.2376176021478
c 0 24.486020935412878 -5.9912604416435755 7.03321877932072 -13.024479220964295 7.03321877932072
S 488.8527897044933 618.7236385375606 488.8527897044933 594.2376176021478
s 5.9912604416435755 -7.03321877932072 13.024479220964295 -7.03321877932072
S 514.9017481464219 569.7515966667349 514.9017481464219 594.2376176021478
z" fill="none" stroke="none" style="animation-play-state:paused" ></path>


<circle cx="0" cy="0" r="5.038140927537268" fill="#e0ff77" opacity="0.9" transform="translate(509.9417724609375 606.2011108398438)" style="opacity:0.9;animation-play-state:paused" ></circle>
<path id="path14" d="M 1061.5209256501153 484.5753508974024
c 0 25.33115583192132 -6.198048767385003 7.275970292147613 -13.474019059532615 7.275970292147613
S 1034.5728875310501 509.9065067293237 1034.5728875310501 484.5753508974024
s 6.198048767385003 -7.275970292147613 13.474019059532615 -7.275970292147613
S 1061.5209256501153 459.2441950654811 1061.5209256501153 484.5753508974024
z" fill="none" stroke="none" style="animation-play-state:paused" ></path>


<circle cx="0" cy="0" r="6.762462898490557" fill="#9df871" opacity="0.9" transform="translate(1061.4244384765625 489.4330139160156)" style="opacity:0.9;animation-play-state:paused" ></circle>
<path id="path15" d="M 1520.489244075409 343.8643233942812
c 0 30.255719995924533 -7.4029953181517465 8.690472764786835 -16.09346808293858 8.690472764786835
S 1488.3023079095317 374.12004339020575 1488.3023079095317 343.8643233942812
s 7.4029953181517465 -8.690472764786835 16.09346808293858 -8.690472764786835
S 1520.489244075409 313.60860339835665 1520.489244075409 343.8643233942812
z" fill="none" stroke="none" style="animation-play-state:paused" ></path>


<circle cx="0" cy="0" r="5.646879692201423" fill="#e0ff77" opacity="0.9" transform="translate(1489.996826171875 328.86810302734375)" style="opacity:0.9;animation-play-state:paused" ></circle>
<path id="path16" d="M 803.8756116766624 658.9324698321335
c 0 31.24973115191172 -7.6462108137656335 8.975986607464005 -16.62219742122964 8.975986607464005
S 770.6312168342031 690.1822009840453 770.6312168342031 658.9324698321335
s 7.6462108137656335 -8.975986607464005 16.62219742122964 -8.975986607464005
S 803.8756116766624 627.6827386802217 803.8756116766624 658.9324698321335
z" fill="none" stroke="none" style="animation-play-state:paused" ></path>


<circle cx="0" cy="0" r="6.156183997576498" fill="#51cacc" opacity="0.9" transform="translate(777.1773071289062 674.0305786132812)" style="opacity:0.9;animation-play-state:paused" ></circle>
<path id="path17" d="M 31.018746630413826 142.2323313176012
c 0 37.41636260685323 -9.155067446357704 10.747253089202522 -19.902320535560225 10.747253089202522
S -8.785894440706624 179.64869392445442 -8.785894440706624 142.2323313176012
s 9.155067446357704 -10.747253089202522 19.902320535560225 -10.747253089202522
S 31.018746630413826 104.81596871074797 31.018746630413826 142.2323313176012
z" fill="none" stroke="none" style="animation-play-state:paused" ></path>


<circle cx="0" cy="0" r="5.664108737152239" fill="#ff708e" opacity="0.9" transform="translate(4.779592037200928 128.9095001220703)" style="opacity:0.9;animation-play-state:paused" ></circle>
<path id="path18" d="M 1375.459163927534 700.3166386911156
c 0 35.4376529744734 -8.67091508949881 10.178900322455126 -18.849815411953937 10.178900322455126
S 1337.7595331036264 735.754291665589 1337.7595331036264 700.3166386911156
s 8.67091508949881 -10.178900322455126 18.849815411953937 -10.178900322455126
S 1375.459163927534 664.8789857166422 1375.459163927534 700.3166386911156
z" fill="none" stroke="none" style="animation-play-state:paused" ></path>


<circle cx="0" cy="0" r="6.405699572845194" fill="#9df871" opacity="0.9" transform="translate(1338.9254150390625 684.88916015625)" style="opacity:0.9;animation-play-state:paused" ></circle>
<path id="path19" d="M 1393.6213407650657 63.59669719878926
c 0 20.96427178893692 -5.1295558632505225 6.02165253512018 -11.151208398370702 6.02165253512018
S 1371.3189239683243 84.56096898772617 1371.3189239683243 63.59669719878926
s 5.1295558632505225 -6.02165253512018 11.151208398370702 -6.02165253512018
S 1393.6213407650657 42.63242540985234 1393.6213407650657 63.59669719878926
z" fill="none" stroke="none" style="animation-play-state:paused" ></path>


<circle cx="0" cy="0" r="4.372654291879443" fill="#e0ff77" opacity="0.9" transform="translate(1393.515625 68.1353988647461)" style="opacity:0.9;animation-play-state:paused" ></circle>
<path id="path20" d="M 898.2528590880232 239.76666139936899
c 0 28.71624604905149 -7.0263155226402585 8.248283439621174 -15.274598962261432 8.248283439621174
S 867.7036611635004 268.48290744842046 867.7036611635004 239.76666139936899
s 7.0263155226402585 -8.248283439621174 15.274598962261432 -8.248283439621174
S 898.2528590880232 211.0504153503175 898.2528590880232 239.76666139936899
z" fill="none" stroke="none" style="animation-play-state:paused" ></path>


<circle cx="0" cy="0" r="5.903645478608412" fill="#de9dd6" opacity="0.9" transform="translate(898.2437744140625 241.46624755859375)" style="opacity:0.9;animation-play-state:paused" ></circle>
<path id="path21" d="M 416.28734738623774 1111.3117969983512
c 0 24.178900914158998 -5.916114053464435 6.9450034540669465 -12.86111750753138 6.9450034540669465
S 390.56511237117496 1135.49069791251 390.56511237117496 1111.3117969983512
s 5.916114053464435 -6.9450034540669465 12.86111750753138 -6.9450034540669465
S 416.28734738623774 1087.1328960841922 416.28734738623774 1111.3117969983512
z" fill="none" stroke="none" style="animation-play-state:paused" ></path>


<circle cx="0" cy="0" r="4.504760946810373" fill="#e0ff77" opacity="0.9" transform="translate(390.6485900878906 1106.8685302734375)" style="opacity:0.9;animation-play-state:paused" ></circle>
<path id="path22" d="M 1298.0689142632611 611.4904994847459
c 0 26.965095727373768 -6.597842571591453 7.745293453607359 -14.343136025198813 7.745293453607359
S 1269.3826422128634 638.4555952121196 1269.3826422128634 611.4904994847459
s 6.597842571591453 -7.745293453607359 14.343136025198813 -7.745293453607359
S 1298.0689142632611 584.5254037573721 1298.0689142632611 611.4904994847459
z" fill="none" stroke="none" style="animation-play-state:paused" ></path>


<circle cx="0" cy="0" r="5.646829459153777" fill="#51cacc" opacity="0.9" transform="translate(1284.5703125 603.6712036132812)" style="opacity:0.9;animation-play-state:paused" ></circle>
<path id="path23" d="M 1627.1716980788935 666.5362273905009
c 0 35.622778330101404 -8.716211719067365 10.232074626731254 -18.94828634579862 10.232074626731254
S 1589.2751253872964 702.1590057206023 1589.2751253872964 666.5362273905009
s 8.716211719067365 -10.232074626731254 18.94828634579862 -10.232074626731254
S 1627.1716980788935 630.9134490603996 1627.1716980788935 666.5362273905009
z" fill="none" stroke="none" style="animation-play-state:paused" ></path>


<circle cx="0" cy="0" r="7.151782288851959" fill="#de9dd6" opacity="0.9" transform="translate(1627.1650390625 664.8744506835938)" style="opacity:0.9;animation-play-state:paused" ></circle>
<path id="path24" d="M 1651.1741622076947 417.8061845447308
c 0 34.647005289044216 -8.47745874093635 9.951799391533978 -18.429258132470327 9.951799391533978
S 1614.3156459427541 452.453189833775 1614.3156459427541 417.8061845447308
s 8.47745874093635 -9.951799391533978 18.429258132470327 -9.951799391533978
S 1651.1741622076947 383.1591792556866 1651.1741622076947 417.8061845447308
z" fill="none" stroke="none" style="animation-play-state:paused" ></path>


<circle cx="0" cy="0" r="7.512437212251696" fill="#de9dd6" opacity="0.9" transform="translate(1642.3809814453125 433.2542724609375)" style="opacity:0.9;animation-play-state:paused" ></circle>
<path id="path25" d="M 433.77227961700623 112.42516617182957
c 0 21.03868619707365 -5.147763643964828 6.043026886393495 -11.190790530358324 6.043026886393495
S 411.39069855628964 133.46385236890322 411.39069855628964 112.42516617182957
s 5.147763643964828 -6.043026886393495 11.190790530358324 -6.043026886393495
S 433.77227961700623 91.38647997475593 433.77227961700623 112.42516617182957
z" fill="none" stroke="none" style="animation-play-state:paused" ></path>


<circle cx="0" cy="0" r="5.980869492246483" fill="#ff708e" opacity="0.9" transform="translate(411.5676574707031 106.77830505371094)" style="opacity:0.9;animation-play-state:paused" ></circle>
<path id="path26" d="M 247.91065528489648 684.4191470804706
c 0 32.64593227051412 -7.98783449172154 9.37702309897746 -17.364857590699 9.37702309897746
S 213.1809401034985 717.0650793509847 213.1809401034985 684.4191470804706
s 7.98783449172154 -9.37702309897746 17.364857590699 -9.37702309897746
S 247.91065528489648 651.7732148099565 247.91065528489648 684.4191470804706
z" fill="none" stroke="none" style="animation-play-state:paused" ></path>


<circle cx="0" cy="0" r="4.699567682828447" fill="#9df871" opacity="0.9" transform="translate(243.58741760253906 667.1210327148438)" style="opacity:0.9;animation-play-state:paused" ></circle>
<path id="path27" d="M 1293.5442915310655 224.52056345058114
c 0 25.981772616064188 -6.357242235845492 7.462849581209926 -13.820091817055417 7.462849581209926
S 1265.9041078969544 250.5023360666453 1265.9041078969544 224.52056345058114
s 6.357242235845492 -7.462849581209926 13.820091817055417 -7.462849581209926
S 1293.5442915310655 198.53879083451696 1293.5442915310655 224.52056345058114
z" fill="none" stroke="none" style="animation-play-state:paused" ></path>


<circle cx="0" cy="0" r="6.1336274154800225" fill="#9df871" opacity="0.9" transform="translate(1266.0015869140625 229.47215270996094)" style="opacity:0.9;animation-play-state:paused" ></circle>
<path id="path28" d="M 634.8354506212022 886.5355330885054
c 0 22.982796163592734 -5.623450125134392 6.601441451244722 -12.224891576379113 6.601441451244722
S 610.3856674684439 909.5183292520982 610.3856674684439 886.5355330885054
s 5.623450125134392 -6.601441451244722 12.224891576379113 -6.601441451244722
S 634.8354506212022 863.5527369249127 634.8354506212022 886.5355330885054
z" fill="none" stroke="none" style="animation-play-state:paused" ></path>


<circle cx="0" cy="0" r="4.935075775443433" fill="#ff708e" opacity="0.9" transform="translate(610.9000854492188 877.6557006835938)" style="opacity:0.9;animation-play-state:paused" ></circle>
<path id="path29" d="M 1276.75431245028 950.5733895605242
c 0 32.829748013935436 -8.032810684260797 9.429821238045285 -17.46263192230608 9.429821238045285
S 1241.8290486056676 983.4031375744596 1241.8290486056676 950.5733895605242
s 8.032810684260797 -9.429821238045285 17.46263192230608 -9.429821238045285
S 1276.75431245028 917.7436415465888 1276.75431245028 950.5733895605242
z" fill="none" stroke="none" style="animation-play-state:paused" ></path>


<circle cx="0" cy="0" r="4.834972831881783" fill="#51cacc" opacity="0.9" transform="translate(1272.7384033203125 933.0968017578125)" style="opacity:0.9;animation-play-state:paused" ></circle></g></svg>